<?xml version="1.0" standalone="no"?>
<!DOCTYPE svg PUBLIC "-//W3C//DTD SVG 20010904//EN"
 "http://www.w3.org/TR/2001/REC-SVG-20010904/DTD/svg10.dtd">
<svg version="1.0" xmlns="http://www.w3.org/2000/svg"
 width="163.000000pt" height="301.000000pt" viewBox="0 0 163.000000 301.000000"
 preserveAspectRatio="xMidYMid meet">

<g transform="translate(0.000000,301.000000) scale(0.100000,-0.100000)"
fill="#000000" stroke="none">
<path d="M175 2988 c-39 -14 -92 -53 -106 -80 -7 -13 -11 -108 -12 -267 l-1
-246 -6 230 -6 230 -3 -235 c-2 -129 -3 -734 -1 -1345 2 -1194 0 -1146 53
-1204 12 -13 40 -32 62 -42 38 -17 78 -19 665 -19 585 0 628 2 665 19 50 22
91 70 104 119 10 38 17 1609 10 2302 l-4 375 -5 -370 -6 -370 -1 403 c-2 461
3 438 -95 486 l-52 26 -615 -1 c-402 0 -626 -4 -646 -11z m531 -77 c72 -86 83
-94 122 -88 22 4 44 16 54 29 9 13 27 35 38 51 l22 27 241 0 c265 0 297 -6
324 -60 10 -20 12 -210 10 -874 l-2 -849 -215 1 c-118 1 -354 1 -525 1 -421 0
-628 0 -642 1 -10 0 -13 178 -13 858 l0 858 28 26 c15 14 34 28 42 31 8 3 124
6 258 6 226 1 243 0 258 -18z m-649 -2278 c-1 -257 -2 -49 -2 462 0 512 1 722
2 468 2 -254 2 -672 0 -930z m1530 -55 c-1 -227 -2 -44 -2 407 0 451 1 637 2
413 2 -223 2 -592 0 -820z"/>
<path d="M412 1885 c4 -4 3 -14 -4 -22 -8 -11 -7 -12 6 -7 19 7 21 20 4 30 -7
4 -10 4 -6 -1z"/>
<path d="M481 1864 c0 -11 3 -14 6 -6 3 7 2 16 -1 19 -3 4 -6 -2 -5 -13z"/>
<path d="M685 1609 c-4 -6 -4 -13 -1 -16 3 -4 6 -1 6 6 0 7 5 9 12 5 7 -4 8
-3 4 4 -9 15 -13 15 -21 1z"/>
<path d="M574 1590 c2 -21 30 -19 32 3 1 12 1 13 -3 2 -5 -18 -20 -20 -26 -2
-2 7 -3 6 -3 -3z"/>
<path d="M620 1606 c0 -4 7 -14 15 -22 8 -9 15 -11 15 -6 0 5 -7 15 -15 22 -8
7 -15 9 -15 6z"/>
<path d="M772 1590 c0 -14 2 -19 5 -12 2 6 2 18 0 25 -3 6 -5 1 -5 -13z"/>
<path d="M807 1590 c3 -11 7 -20 9 -20 2 0 4 9 4 20 0 11 -4 20 -9 20 -5 0 -7
-9 -4 -20z"/>
</g>
</svg>
